<?xml version="1.0" encoding="UTF-8" standalone="no"?>
<!-- Created with Inkscape (http://www.inkscape.org/) -->

<svg
   xmlns:osb="http://www.openswatchbook.org/uri/2009/osb"
   xmlns:dc="http://purl.org/dc/elements/1.1/"
   xmlns:cc="http://creativecommons.org/ns#"
   xmlns:rdf="http://www.w3.org/1999/02/22-rdf-syntax-ns#"
   xmlns:svg="http://www.w3.org/2000/svg"
   xmlns="http://www.w3.org/2000/svg"
   xmlns:sodipodi="http://sodipodi.sourceforge.net/DTD/sodipodi-0.dtd"
   xmlns:inkscape="http://www.inkscape.org/namespaces/inkscape"
   width="210mm"
   height="297mm"
   viewBox="0 0 210 297"
   version="1.1"
   id="svg8"
   inkscape:version="0.92.3 (unknown)"
   sodipodi:docname="FBDcomponent.svg">
  <defs
     id="defs2">
    <marker
       inkscape:stockid="Arrow1Lend"
       orient="auto"
       refY="0.0"
       refX="0.0"
       id="Arrow1Lend"
       style="overflow:visible;"
       inkscape:isstock="true">
      <path
         id="path4594"
         d="M 0.0,0.0 L 5.0,-5.0 L -12.5,0.0 L 5.0,5.0 L 0.0,0.0 z "
         style="fill-rule:evenodd;stroke:#000000;stroke-width:1pt;stroke-opacity:1;fill:#000000;fill-opacity:1"
         transform="scale(0.8) rotate(180) translate(12.5,0)" />
    </marker>
    <marker
       inkscape:stockid="Arrow2Lstart"
       orient="auto"
       refY="0.0"
       refX="0.0"
       id="Arrow2Lstart"
       style="overflow:visible"
       inkscape:isstock="true">
      <path
         id="path4609"
         style="fill-rule:evenodd;stroke-width:0.625;stroke-linejoin:round;stroke:#000000;stroke-opacity:1;fill:#000000;fill-opacity:1"
         d="M 8.7185878,4.0337352 L -2.2072895,0.016013256 L 8.7185884,-4.0017078 C 6.9730900,-1.6296469 6.9831476,1.6157441 8.7185878,4.0337352 z "
         transform="scale(1.1) translate(1,0)" />
    </marker>
    <linearGradient
       id="linearGradient4526"
       osb:paint="solid">
      <stop
         style="stop-color:#000000;stop-opacity:1;"
         offset="0"
         id="stop4524" />
    </linearGradient>
    <marker
       inkscape:stockid="Arrow1Lend"
       orient="auto"
       refY="0"
       refX="0"
       id="Arrow1Lend-5"
       style="overflow:visible"
       inkscape:isstock="true">
      <path
         inkscape:connector-curvature="0"
         id="path4594-3"
         d="M 0,0 5,-5 -12.5,0 5,5 Z"
         style="fill:#000000;fill-opacity:1;fill-rule:evenodd;stroke:#000000;stroke-width:1.00000003pt;stroke-opacity:1"
         transform="matrix(-0.8,0,0,-0.8,-10,0)" />
    </marker>
  </defs>
  <sodipodi:namedview
     id="base"
     pagecolor="#ffffff"
     bordercolor="#666666"
     borderopacity="1.0"
     inkscape:pageopacity="0.0"
     inkscape:pageshadow="2"
     inkscape:zoom="0.7"
     inkscape:cx="311.26382"
     inkscape:cy="732.37357"
     inkscape:document-units="mm"
     inkscape:current-layer="layer1"
     showgrid="false"
     inkscape:window-width="959"
     inkscape:window-height="744"
     inkscape:window-x="65"
     inkscape:window-y="24"
     inkscape:window-maximized="1" />
  <metadata
     id="metadata5">
    <rdf:RDF>
      <cc:Work
         rdf:about="">
        <dc:format>image/svg+xml</dc:format>
        <dc:type
           rdf:resource="http://purl.org/dc/dcmitype/StillImage" />
        <dc:title></dc:title>
      </cc:Work>
    </rdf:RDF>
  </metadata>
  <g
     inkscape:label="Layer 1"
     inkscape:groupmode="layer"
     id="layer1">
    <text
       xml:space="preserve"
       style="font-style:normal;font-weight:normal;font-size:10.58333302px;line-height:0.2;font-family:sans-serif;letter-spacing:0px;word-spacing:0px;fill:#000000;fill-opacity:1;stroke:none;stroke-width:0.26458332"
       x="160.2496"
       y="90.801559"
       id="text6292"><tspan
         sodipodi:role="line"
         x="160.2496"
         y="90.801559"
         style="font-size:3.52777767px;line-height:0.2;stroke-width:0.26458332"
         id="tspan6294">Force application </tspan><tspan
         sodipodi:role="line"
         x="160.2496"
         y="94.045464"
         style="font-size:3.52777767px;line-height:0.2;stroke-width:0.26458332"
         id="tspan6298">or measurement point</tspan></text>
    <path
       style="fill:none;stroke:#000000;stroke-width:0.26458332px;stroke-linecap:butt;stroke-linejoin:miter;stroke-opacity:1"
       d="m 108.85714,87.223213 c -0.25198,-0.503968 -0.41788,-1.061141 -0.75595,-1.511904 -0.0756,-0.100795 -0.25198,0 -0.37798,0 -0.50396,0 -1.00793,0 -1.5119,0 -0.37798,0 -0.75595,0 -1.13393,0 -0.25198,0 -0.51149,0.06111 -0.75595,0 -0.54663,-0.13666 -0.9594,-0.645451 -1.51191,-0.755954 -0.37063,-0.07413 -0.75595,0 -1.13393,0 -1.38591,0 -2.771822,0 -4.157734,0 -0.377976,0 -0.759751,0.05345 -1.13393,0 -0.514257,-0.07346 -0.996436,-0.313542 -1.511903,-0.377976 -0.875133,-0.109392 -1.76389,0 -2.645833,0 -1.637898,0 -3.275793,0 -4.913691,0 -0.881944,0 -1.76389,0 -2.645833,0 -0.377976,0 -0.763292,-0.07412 -1.133928,0 -0.390686,0.07814 -0.747403,0.281345 -1.13393,0.377976 -0.122229,0.03056 -0.265284,-0.05635 -0.377976,0 -0.862584,0.431292 -1.041273,0.851059 -1.889881,1.13393 -0.304232,0.10141 -1.270368,-0.120769 -1.511904,0 -0.318738,0.159369 -0.437216,0.596583 -0.755954,0.755952 -0.112689,0.05635 -0.265284,-0.05635 -0.377976,0 -1.253588,1.25359 0.35636,-0.178179 -0.755951,0.377976 -0.288732,0.144367 -0.877983,1.048612 -1.133928,1.13393 -0.0016,5.29e-4 -1.133567,-2.65e-4 -1.13393,0 -0.19921,0.19921 -0.221702,0.521541 -0.377976,0.755951 -0.197672,0.296508 -0.558278,0.459444 -0.755951,0.755952 -0.156274,0.23441 -0.221703,0.521541 -0.377976,0.755952 -0.290753,0.436128 -0.843179,0.697804 -1.13393,1.13393 -0.156274,0.23441 -0.221702,0.521541 -0.377976,0.755951 -0.197673,0.296511 -0.558279,0.459444 -0.755952,0.755952 -0.156273,0.234413 -0.288887,0.488683 -0.377975,0.755954 -0.03984,0.119526 0.06989,0.273143 0,0.377976 -0.197673,0.296508 -0.596585,0.437213 -0.755955,0.755952 -0.15119,0.302381 0.151191,0.831548 0,1.13393 -0.07968,0.159366 -0.298291,0.218606 -0.377975,0.377975 -0.05635,0.112692 0.08909,0.288886 0,0.377976 -0.19921,0.19921 -0.556742,0.178766 -0.755952,0.377976 -0.08909,0.08909 0.05635,0.265284 0,0.377976 -0.07968,0.159369 -0.298291,0.218606 -0.377976,0.377976 -0.05634,0.112691 0,0.251983 0,0.377975 0,0.251987 0.07968,0.516901 0,0.755955 -0.05634,0.169034 -0.298291,0.218606 -0.377976,0.377975 -0.112691,0.225381 0.07969,0.516903 0,0.755953 -0.08909,0.26727 -0.288888,0.48868 -0.377978,0.75595 -0.03984,0.11953 0.05635,0.26529 0,0.37798 -0.07968,0.15937 -0.32163,0.20894 -0.377976,0.37797 -0.07968,0.23906 0,0.50397 0,0.75596 0,0.62996 0,1.25992 0,1.88988 0,0.12599 0.03056,0.25574 0,0.37797 -0.786521,3.1461 0.02609,-0.45625 -0.755951,1.88989 -0.03984,0.11952 0.03984,0.25844 0,0.37797 -0.08909,0.26727 -0.288886,0.48868 -0.377976,0.75595 -0.105709,0.31712 0.106786,1.67631 0,1.88988 -0.159369,0.31874 -0.596585,0.43722 -0.755952,0.75596 -0.05635,0.11269 0.05634,0.26528 0,0.37797 -0.07968,0.15937 -0.298294,0.21861 -0.377978,0.37798 -0.04236,0.0847 0,1.42209 0,1.5119 0,1.13393 0,2.26786 0,3.40179 0,1.25992 0,2.51984 0,3.77976 0,0.39802 -0.07831,1.57665 0,1.88988 0.954733,3.81893 -0.136483,-0.27297 0.755954,1.51191 0.05635,0.11269 -0.05635,0.26528 0,0.37797 0.159369,0.31874 0.596582,0.43722 0.755952,0.75595 0.05635,0.1127 -0.05635,0.26529 0,0.37798 0.07968,0.15937 0.298291,0.21861 0.377975,0.37798 0.05635,0.11269 0,0.25198 0,0.37797 0.125992,0.37798 0.17299,0.79229 0.377976,1.13393 0.544954,0.90826 0.761516,0.63367 1.511906,1.13393 0.155284,0.10352 1.030407,0.97865 1.133927,1.13393 0.156274,0.23441 0.221703,0.52154 0.377976,0.75595 0.217437,0.32616 0.838698,0.8387 1.13393,1.13393 0.125992,0.12599 0.251984,0.25199 0.377976,0.37798 0.125992,0.12599 0.218607,0.29829 0.377976,0.37797 0.112691,0.0564 0.265287,-0.0563 0.377976,0 0.159369,0.0797 0.208941,0.32163 0.377976,0.37798 0.239053,0.0797 0.5169,-0.0797 0.755954,0 0.580612,0.19354 0.292875,0.82521 0.755951,1.13393 0.209664,0.13977 0.503968,0 0.755952,0 0.755954,0 1.511906,0 2.267858,0 0.251983,0 0.503967,0 0.755951,0 0.125992,0 0.265287,0.0563 0.377979,0 0.159366,-0.0797 0.229721,-0.27914 0.377975,-0.37798 0.234411,-0.15627 0.521542,-0.2217 0.755952,-0.37798 0.148254,-0.0988 0.21254,-0.3118 0.377976,-0.37797 0.482325,-0.19293 1.029581,-0.18505 1.511906,-0.37798 0.165436,-0.0662 0.251984,-0.25198 0.377975,-0.37797 0.251984,-0.25199 0.459444,-0.55828 0.755952,-0.75595 0.209664,-0.13978 0.577773,0.17817 0.755952,0 0.460369,-0.46037 0.177054,-0.84448 0.755954,-1.13393 0.112691,-0.0563 0.265284,0.0563 0.377976,0 0.159369,-0.0797 0.229722,-0.27915 0.377976,-0.37798 0.23441,-0.15627 0.521541,-0.2217 0.755951,-0.37798 0.148254,-0.0988 0.229722,-0.27914 0.377976,-0.37797 0.234413,-0.15628 0.521541,-0.2217 0.755954,-0.37798 0.148254,-0.0988 0.218607,-0.29829 0.377976,-0.37798 0.356359,-0.17817 0.815192,-0.13892 1.133928,-0.37797 0.225382,-0.16904 0.208941,-0.53057 0.377975,-0.75595 0.213818,-0.28509 0.503971,-0.50397 0.755955,-0.75596 0.125992,-0.12599 0.235431,-0.27106 0.377975,-0.37797 0.377976,-0.25198 0.755952,-0.50397 1.133928,-0.75596 0.125992,0 0.265287,0.0564 0.377976,0 0.159369,-0.0797 0.251986,-0.25198 0.377978,-0.37797 0.125992,-0.12599 0.279138,-0.22972 0.377976,-0.37798 0.156273,-0.23441 0.178766,-0.55674 0.377976,-0.75595 0.08909,-0.0891 0.265284,0.0563 0.377975,0 0.318739,-0.15937 0.459444,-0.55828 0.755952,-0.75595 0.234413,-0.15628 0.521541,-0.22171 0.755954,-0.37798 0.296508,-0.19767 0.437214,-0.59658 0.755952,-0.75595 0.112691,-0.0563 0.265284,0.0564 0.377976,0 0.159369,-0.0797 0.218606,-0.29829 0.377976,-0.37798 0.09938,-0.0497 1.314254,0 1.511905,0 0.755952,0 1.511904,0 2.267858,0 0.377976,0 0.761092,-0.0621 1.133932,0 0.393,0.0655 0.74324,0.29984 1.13392,0.37798 0.24709,0.0494 0.50397,0 0.75596,0 0.25198,0.12599 0.48868,0.28889 0.75595,0.37798 0.34018,0.11339 0.79375,-0.1134 1.13393,0 0.16759,0.0559 1.40191,1.4459 1.5119,1.5119 0.34165,0.20499 0.77757,0.1998 1.13393,0.37798 0.31874,0.15937 0.45944,0.55828 0.75595,0.75595 0.23441,0.15627 0.52155,0.2217 0.75596,0.37797 0.15528,0.10353 1.0304,0.97865 1.13392,1.13393 0.15628,0.23441 0.22171,0.52155 0.37798,0.75596 0.37079,0.55618 1.14112,0.95572 1.5119,1.5119 0.15628,0.23441 0.22171,0.52154 0.37798,0.75595 0.0988,0.14826 0.28631,0.22519 0.37798,0.37798 1.53648,0.54265 0.34575,1.82543 0.75595,2.64583 0.12599,0.25199 0.52154,0.22171 0.75595,0.37798 0.29651,0.19767 0.50397,0.50397 0.75595,0.75595 0.29524,0.29523 0.9165,0.80777 1.13393,1.13393 0.23019,0.34528 0.32264,0.91727 0.75596,1.13393 0.11269,0.0563 0.26528,-0.0564 0.37797,0 0.31874,0.15937 0.43722,0.59658 0.75595,0.75595 0.22539,0.11269 0.53057,-0.11269 0.75596,0 0.15937,0.0797 0.20894,0.32163 0.37797,0.37798 0.23906,0.0797 0.5115,-0.0611 0.75595,0 0.27332,0.0683 0.48869,0.28888 0.75596,0.37797 0.21325,0.0711 0.88555,0 1.13393,0 0.88194,0 1.76389,0 2.64583,0 0.62996,0 1.25992,0 1.88988,0 0.37798,0 0.76329,0.0741 1.13393,0 0.27626,-0.0553 0.53057,-0.20894 0.75595,-0.37797 1.08991,-0.81743 0.49006,-0.54611 1.13393,-1.51191 0.0988,-0.14825 0.25198,-0.25198 0.37798,-0.37797 0.25198,-0.25199 0.47086,-0.54214 0.75595,-0.75596 0.22538,-0.16903 0.53057,-0.20894 0.75595,-0.37797 0.42763,-0.32073 0.75595,-0.75596 1.13393,-1.13393 0.12599,-0.12599 0.20894,-0.32163 0.37797,-0.37798 0.23906,-0.0797 0.522,0.0936 0.75596,0 2.22825,-0.8913 0.44163,-0.42041 1.5119,-1.13392 0.23441,-0.15628 0.52154,-0.22171 0.75595,-0.37798 0.29651,-0.19767 0.47087,-0.54214 0.75596,-0.75595 0.36341,-0.27257 0.77051,-0.48339 1.13393,-0.75596 0.50396,-0.37797 0.6213,-1.14575 1.13392,-1.5119 1.10519,-0.78942 3.38887,-0.73658 4.15774,-1.88988 0.31255,-0.46882 0.44341,-1.04308 0.75595,-1.51191 0.0988,-0.14825 0.27914,-0.22972 0.37798,-0.37797 0.31255,-0.46883 0.4434,-1.04309 0.75595,-1.51191 0.0988,-0.14825 0.2983,-0.21861 0.37798,-0.37797 0.12018,-0.24038 -0.10435,-1.57684 0,-1.88989 0.0564,-0.16903 0.27914,-0.22972 0.37798,-0.37797 0.83274,-0.19035 0.19979,-0.77757 0.37797,-1.13393 0.0797,-0.15937 0.32163,-0.20894 0.37798,-0.37798 0.17203,-0.51608 -0.17203,-1.75177 0,-2.26785 0.0563,-0.16904 0.29829,-0.21861 0.37797,-0.37798 0.0564,-0.11269 -0.0563,-0.26529 0,-0.37797 0.0797,-0.15937 0.32164,-0.20895 0.37798,-0.37798 0.0797,-0.23905 -0.0494,-0.50886 0,-0.75595 0.0781,-0.39069 0.29984,-0.74325 0.37798,-1.13393 0.0293,-0.1464 -0.0311,-1.44974 0,-1.51191 0.15936,-0.31874 0.59658,-0.43721 0.75595,-0.75595 0.11269,-0.22538 -0.0611,-0.51149 0,-0.75595 0.0683,-0.27332 0.30965,-0.48264 0.37797,-0.75596 0.0611,-0.24445 -0.0494,-0.50886 0,-0.75595 0.0781,-0.39068 0.28135,-0.7474 0.37798,-1.13392 0.11858,-0.47433 -0.11858,-1.03759 0,-1.51191 0.0683,-0.27331 0.28889,-0.48868 0.37798,-0.75595 0.0398,-0.11953 0,-0.25199 0,-0.37798 0,-0.37798 -0.0741,-0.76329 0,-1.13393 0.0553,-0.27625 0.27334,-0.49437 0.37797,-0.75595 0.14797,-0.36992 0.28135,-0.7474 0.37798,-1.13393 0.0306,-0.12223 0,-0.25198 0,-0.37798 0.12599,-0.37797 0.28135,-0.7474 0.37798,-1.133923 0.0611,-0.244461 -0.0797,-0.5169 0,-0.755951 0.0891,-0.267272 0.2217,-0.521541 0.37797,-0.755954 0.0988,-0.148254 0.33476,-0.205116 0.37798,-0.377976 0.0917,-0.366692 0,-0.755952 0,-1.133928 0,-0.125992 -0.0564,-0.265287 0,-0.377975 0.0797,-0.15937 0.29829,-0.21861 0.37797,-0.377979 0.0564,-0.112689 -0.0563,-0.265284 0,-0.377976 0.15937,-0.318735 0.64327,-0.41788 0.75596,-0.755951 0.15936,-0.478108 -0.15937,-1.033799 0,-1.511906 0.0563,-0.169035 0.27914,-0.229719 0.37797,-0.377976 0.83275,-0.190347 0.1998,-0.777568 0.37798,-1.133927 0.0797,-0.15937 0.29829,-0.218607 0.37798,-0.377976 0.0563,-0.112692 0,-0.251984 0,-0.377976 0.12599,-0.377978 0.13892,-0.815192 0.37797,-1.13393 0.69055,-0.920737 0.6989,0.114109 1.13393,-0.755952 0.11878,-0.237566 -0.11878,-1.274339 0,-1.511906 0.0797,-0.159369 0.32163,-0.208938 0.37798,-0.377975 0.0797,-0.239054 -0.0797,-0.516898 0,-0.755952 0.0563,-0.169037 0.32163,-0.208941 0.37797,-0.377976 0.0797,-0.239053 -0.0611,-0.511492 0,-0.755954 0.0683,-0.273315 0.30965,-0.482637 0.37798,-0.755952 0.0611,-0.244459 0,-0.503967 0,-0.755951 0,-0.251984 0,-0.503968 0,-0.755952 0,-1.76389 0,-3.527779 0,-5.291667 0,-1.385913 0,-2.771825 0,-4.157739 0,-0.629959 0,-1.259919 0,-1.889881 0,-0.377976 0.0917,-0.767236 0,-1.133928 -0.0683,-0.273314 -0.25198,-0.503968 -0.37798,-0.755951 -0.12599,-0.251984 -0.20894,-0.530572 -0.37797,-0.755955 -0.21382,-0.285086 -0.50397,-0.503967 -0.75596,-0.755951 -0.50396,-0.503968 -1.00793,-1.007936 -1.5119,-1.511906 -0.86664,-0.866635 0.15937,0.239054 -0.75595,-1.133928 -0.19767,-0.296508 -0.59659,-0.437216 -0.75596,-0.755951 -0.20158,-0.403175 0.37418,-0.505235 -0.37797,-0.755954 -0.23906,-0.07968 -0.5169,0.07968 -0.75595,0 -0.29782,-0.09927 -1.14849,-1.330196 -1.51191,-1.511904 -0.2399,-0.119951 -1.76734,0.122539 -1.88988,0 -0.19921,-0.19921 -0.17876,-0.556741 -0.37798,-0.755951 -0.0891,-0.08909 -0.25198,0 -0.37797,0 -0.12599,0 -0.25199,0 -0.37798,0 -1.88988,0 -3.77976,0 -5.66964,0 -1.00794,0 -2.01587,0 -3.02381,0 -0.37798,0 -0.77535,-0.119528 -1.13393,0 -0.16903,0.05634 -0.20894,0.32163 -0.37798,0.377975 -0.23905,0.07969 -0.51689,-0.07968 -0.75595,0 -0.33807,0.112692 -0.43721,0.596583 -0.75595,0.755952 -0.11269,0.05635 -0.26529,-0.05635 -0.37798,0 -0.15936,0.07969 -0.22972,0.279141 -0.37797,0.377976 -0.23441,0.156273 -0.52154,0.221702 -0.75595,0.377976 -0.29651,0.197673 -0.43722,0.596585 -0.75596,0.755954 -0.22538,0.112689 -0.57777,-0.178181 -0.75595,0 -0.46037,0.460367 -0.17705,0.844479 -0.75595,1.133927 -0.11269,0.05635 -0.26529,-0.05634 -0.37798,0 -0.31874,0.15937 -0.45944,0.558279 -0.75595,0.755952 -0.23441,0.156274 -0.52154,0.221702 -0.75595,0.377976 -0.14826,0.09884 -0.25199,0.251986 -0.37798,0.377978 -0.25198,0.251984 -0.54214,0.470863 -0.75595,0.755952 -0.16904,0.22538 -0.2217,0.521541 -0.37798,0.755952 -0.34665,0.519982 -0.58311,0.388741 -1.13393,0.755951 -0.18325,0.122174 -1.76771,1.706623 -1.88988,1.889882 -0.83274,0.190346 -0.19979,0.777571 -0.37797,1.13393 -0.0797,0.159366 -0.27914,0.229722 -0.37798,0.377976 -0.15627,0.23441 -0.17876,0.556741 -0.37798,0.755951 -0.19921,0.19921 -0.55674,0.178766 -0.75595,0.377976 -0.0891,0.08909 0.0563,0.265287 0,0.377976 -0.0797,0.159369 -0.29829,0.218609 -0.37797,0.377976 -0.17819,0.356359 -0.1998,0.77757 -0.37798,1.13393 -0.0797,0.159369 -0.32163,0.208939 -0.37798,0.377976 -0.0576,0.172881 0.0841,1.343713 0,1.511905 -0.0797,0.159367 -0.29829,0.218607 -0.37797,0.377976 -0.17818,0.35636 -0.1998,0.777568 -0.37798,1.133928 -0.0362,0.07235 -1.43955,1.475729 -1.5119,1.511906 -0.22539,0.112691 -0.53057,-0.112692 -0.75596,0 -0.15936,0.07968 -0.2186,0.298291 -0.37797,0.377975 -0.22302,0.111506 -0.87395,-0.08666 -1.13393,0 -1.07993,0.359977 -0.55796,0.269984 -1.13393,1.133928 -0.0988,0.148254 -0.25198,0.251984 -0.37798,0.377976 -0.12599,0.125994 -0.2186,0.298294 -0.37797,0.377978 -0.11269,0.05634 -0.26529,-0.05635 -0.37798,0 -0.15937,0.07968 -0.29829,0.218607 -0.37797,0.377976 -0.0563,0.112691 0,0.251984 0,0.377976 0,0.125992 0,0.251984 0,0.377976 0,0.755951 0,1.511905 0,2.267857 0,0.125992 0.0563,0.265284 0,0.377976 -0.28821,0.576405 -0.99328,0.377976 -1.51191,0.377976 -0.12599,0 -0.37798,0.125992 -0.37798,0 0,-0.125992 0.50397,0 0.37798,0 -0.25198,0 -0.50397,0 -0.75595,0 -0.75595,0 -1.51191,0 -2.26786,0 z"
       id="path3713"
       inkscape:connector-curvature="0" />
    <ellipse
       id="path3715"
       cx="106.77827"
       cy="106.5"
       rx="6.2366071"
       ry="7.5595236"
       style="stroke-width:0.26458332" />
    <path
       id="path3717"
       style="fill:#ffffff;fill-opacity:1;stroke:#000000;stroke-width:0.26458332;stroke-opacity:1"
       sodipodi:type="arc"
       sodipodi:cx="106.58928"
       sodipodi:cy="107.06696"
       sodipodi:rx="6.2366095"
       sodipodi:ry="7.1815486"
       sodipodi:start="0"
       sodipodi:end="1.5740825"
       d="m 112.82589,107.06696 a 6.2366095,7.1815486 0 0 1 -1.83391,5.08646 6.2366095,7.1815486 0 0 1 -4.4232,2.09505 l 0.0205,-7.18151 z" />
    <path
       id="path3717-3"
       style="fill:#ffffff;fill-opacity:1;stroke:#000000;stroke-width:0.27922863;stroke-opacity:1"
       sodipodi:type="arc"
       sodipodi:cx="-106.58928"
       sodipodi:cy="-107.06696"
       sodipodi:rx="6.222002"
       sodipodi:ry="8.0173616"
       sodipodi:start="0"
       sodipodi:end="1.5740825"
       d="m -100.36728,-107.06696 a 6.222002,8.0173616 0 0 1 -1.82961,5.67843 6.222002,8.0173616 0 0 1 -4.41284,2.338885 l 0.0204,-8.017315 z"
       transform="scale(-1)" />
    <path
       style="fill:#ffffff;stroke:#000000;stroke-width:0.1268388;stroke-opacity:1"
       id="path4564"
       sodipodi:type="arc"
       sodipodi:cx="146.8813"
       sodipodi:cy="71.691788"
       sodipodi:rx="1.2882898"
       sodipodi:ry="1.6724914"
       sodipodi:start="0"
       sodipodi:end="6.2656585"
       d="m 148.16959,71.691788 a 1.2882898,1.6724914 0 0 1 -1.28264,1.672475 1.2882898,1.6724914 0 0 1 -1.29389,-1.657819 1.2882898,1.6724914 0 0 1 1.27131,-1.687003 1.2882898,1.6724914 0 0 1 1.30502,1.643035"
       sodipodi:open="true" />
    <path
       style="fill:#ffffff;stroke:#000000;stroke-width:0.1268388;stroke-opacity:1"
       id="path4564-6"
       sodipodi:type="arc"
       sodipodi:cx="77.107147"
       sodipodi:cy="125.77679"
       sodipodi:rx="1.2882898"
       sodipodi:ry="1.6724914"
       sodipodi:start="0"
       sodipodi:end="6.2656585"
       d="m 78.395437,125.77679 a 1.2882898,1.6724914 0 0 1 -1.282645,1.67247 1.2882898,1.6724914 0 0 1 -1.293885,-1.65782 1.2882898,1.6724914 0 0 1 1.271306,-1.687 1.2882898,1.6724914 0 0 1 1.305026,1.64303"
       sodipodi:open="true" />
    <path
       style="fill:#ffffff;stroke:#000000;stroke-width:0.1268388;stroke-opacity:1"
       id="path4564-7"
       sodipodi:type="arc"
       sodipodi:cx="140.04018"
       sodipodi:cy="113.49256"
       sodipodi:rx="1.2882898"
       sodipodi:ry="1.6724914"
       sodipodi:start="0"
       sodipodi:end="6.2656585"
       d="m 141.32847,113.49256 a 1.2882898,1.6724914 0 0 1 -1.28265,1.67248 1.2882898,1.6724914 0 0 1 -1.29388,-1.65782 1.2882898,1.6724914 0 0 1 1.2713,-1.68701 1.2882898,1.6724914 0 0 1 1.30503,1.64304"
       sodipodi:open="true" />
    <path
       style="fill:none;stroke:#000000;stroke-width:0.26458332px;stroke-linecap:butt;stroke-linejoin:miter;stroke-opacity:1"
       d="m 70.681547,142.59673 c 0.566965,-1.6064 6.358893,-16.64923 6.358893,-16.64923 l 5.736345,16.64922 z"
       id="path4587"
       inkscape:connector-curvature="0"
       sodipodi:nodetypes="cccc" />
    <path
       style="fill:none;stroke:#000000;stroke-width:0.265;stroke-linecap:butt;stroke-linejoin:miter;stroke-opacity:1;stroke-miterlimit:4;stroke-dasharray:none;marker-end:url(#Arrow1Lend)"
       d="M 162.48251,86.325518 C 162.10454,85.805803 146.7965,71.678942 146.7965,71.678942"
       id="path4589"
       inkscape:connector-curvature="0" />
    <path
       style="fill:none;stroke:#000000;stroke-width:0.26499999;stroke-linecap:butt;stroke-linejoin:miter;stroke-miterlimit:4;stroke-dasharray:none;stroke-opacity:1;marker-end:url(#Arrow1Lend-5)"
       d="m 126.14008,150.98511 c -0.37797,-0.51971 14.24818,-37.09721 14.24818,-37.09721"
       id="path4589-5"
       inkscape:connector-curvature="0"
       sodipodi:nodetypes="cc" />
    <text
       xml:space="preserve"
       style="font-style:normal;font-weight:normal;font-size:10.58333302px;line-height:1.25;font-family:sans-serif;letter-spacing:0px;word-spacing:0px;fill:#000000;fill-opacity:1;stroke:none;stroke-width:0.26458332"
       x="64.946495"
       y="150.53632"
       id="text6284"><tspan
         sodipodi:role="line"
         id="tspan6282"
         x="64.946495"
         y="150.53632"
         style="font-size:3.52777767px;stroke-width:0.26458332">Hinge point</tspan></text>
    <text
       xml:space="preserve"
       style="font-style:normal;font-weight:normal;font-size:10.58333302px;line-height:1.25;font-family:sans-serif;letter-spacing:0px;word-spacing:0px;fill:#000000;fill-opacity:1;stroke:none;stroke-width:0.26458332"
       x="71.8955"
       y="24.117813"
       id="text6288"><tspan
         sodipodi:role="line"
         id="tspan6286"
         x="71.8955"
         y="24.117813"
         style="stroke-width:0.26458332">Component object</tspan></text>
    <text
       xml:space="preserve"
       style="font-style:normal;font-weight:normal;font-size:10.58333302px;line-height:0.2;font-family:sans-serif;letter-spacing:0px;word-spacing:0px;fill:#000000;fill-opacity:1;stroke:none;stroke-width:0.26458332"
       x="56.486404"
       y="67.052368"
       id="text6284-6"><tspan
         sodipodi:role="line"
         id="tspan6282-2"
         x="56.486404"
         y="67.052368"
         style="font-size:3.52777767px;line-height:0.2;stroke-width:0.26458332">CG has six degrees of freedom:</tspan><tspan
         sodipodi:role="line"
         x="56.486404"
         y="70.296272"
         style="font-size:3.52777767px;line-height:0.2;stroke-width:0.26458332"
         id="tspan6318">x, y, z, rx, ry, rz</tspan></text>
  </g>
</svg>
